<svg xmlns="http://www.w3.org/2000/svg" viewBox="0 0 467.23 695.63"><defs><style>.cls-1{fill:#1d1d1b;}.cls-2{fill:#fff;}</style></defs><g id="Layer_2" data-name="Layer 2"><g id="Layer_1-2" data-name="Layer 1"><path class="cls-1" d="M324.82,347.74c-4.13,2.17-9.11,4.55-14.27,6.66-2.55,1.11-5.2,2.06-7.75,3s-5.05,1.77-7.39,2.49c-9.36,2.9-16.12,4-14,1.88l-4.16-.43c1.91-.58,4.58-1.41,7.68-2.48l5-1.68,5.41-1.95,2.84-1,2.84-1.08,5.72-2.17c3.74-1.53,7.47-2.91,10.75-4.31l8.61-3.46a28.12,28.12,0,0,1,5.08-1.6c.94-.13,1.07.23.13,1.24A53.3,53.3,0,0,1,324.82,347.74Z"/><path class="cls-2" d="M334.33,356.76c-1.93.83-3.44,1.45-4.61,1.9a23.13,23.13,0,0,1-2.55.83c-1.1.26-1.08,0-.51-.49,1.17-1,4.48-3.12,5.54-4.23,6.89-3.25,13.55-6.91,20.15-10.68,3.27-1.28,1,.86-3.27,3.74l-3.49,2.34c-1.25.79-2.57,1.57-3.89,2.36l-3.86,2.3C336.59,355.54,335.39,356.18,334.33,356.76Z"/><path class="cls-1" d="M336.47,384.66c2.32-.83,4.65-1.64,6.94-2.56l-2.71,1.08-2.94,1.14c-2,.79-4.09,1.65-6.16,2.51s-4.14,1.64-6.09,2.44l-2.81,1.17-2.58,1c-.53-.52,2.2-2.34,6.67-4.79,1.12-.6,2.35-1.24,3.67-1.89s2.72-1.39,4.19-2.1,3-1.44,4.59-2.15,3.19-1.5,4.83-2.22C341.81,380.74,329,386.6,336.47,384.66Z"/><path class="cls-1" d="M12,406.63c1.06-1,.79-2-.73-3.16s-4.26-2-8.15-2.87l0-1.13a146.06,146.06,0,0,0,14.68,7.14c3,1.2,6.19,2.34,9.57,3.53s6.94,2.42,10.65,3.39c-3.9,1.85-7.82,3.48-11.8,5.13q-2.52-.82-5.45-1.64c-1.94-.55-4-1-6.19-1.66-4.34-1.21-9.13-2.4-14.26-3.59l1.15-23.68,4.65-.33,2.37-.16a21.31,21.31,0,0,1,2.4-.11l4.88,0h2.47c.83,0,1.65.12,2.48.18l5,.4c.84,0,1.67.18,2.51.3l2.5.38c1.67.28,3.38.46,5,.83l5,1.11c.83.19,1.67.35,2.49.57l2.44.71,4.87,1.42c1.6.54,3.16,1.12,4.74,1.68s3.16,1.09,4.66,1.76c3,1.3,6.06,2.49,8.88,3.95l4.25,2.08c1.38.72,2.71,1.48,4,2.22,3.16,1.36,3,.92,1.49-.29s-4.39-3.21-6.85-4.7-4.24-2.77-3.4-2.7a17.85,17.85,0,0,1,3.5,1.21c1,.41,2.26.91,3.72,1.61l5.16,2.57a4.79,4.79,0,0,1,1.68,3.09c.27.92.93,2,3.9,4.24,1.74.91,3.23,1.81,4.65,2.58s2.7,1.47,3.9,2.08c2.34,1.27,4.3,2.26,6.11,3.1s3.37,1.6,5,2.35,3.29,1.54,5.1,2.57,3.84,2.26,6.25,3.89c1.19.83,2.47,1.76,3.86,2.81l2.19,1.67,2.3,1.89c3.19,2.66,7,5.85,11.27,10,2.17,2,4.53,4.26,7,6.78s5.18,5.19,7.95,8.23c4.34,6,8.51,12.08,12.6,18.17,28.82,31.49,55.32,65.28,81.26,98.67,25.77,33.52,51.47,66.93,76,100.07L288.4,690.72c-6.46-25.24-12.52-50.2-17.88-74.76-8-17.19-19.89-69.71-29.56-100.85l1.82-1.23c-3.88-8.68-6.63-21-9-34-1.17-6.49-2.38-13.12-3.54-19.56s-2.38-12.67-3.76-18.31c-.89-6.91-1.8-13.81-2.61-20.74,1.48-8.46,14.64,57.7,15.45,38.39-1.74-11-3.93-21-6.32-30.43s-4.83-18.26-7.29-26.9S221,385.23,219,376.54c-1-4.34-1.9-8.74-2.7-13.24s-1.39-9.12-1.88-13.87c-1.59-9.14-2.88-15.7-4-20.75s-2-8.61-2.9-11.72c-1.8-6.22-3.52-10.66-6.19-21.86-1.53-2.72-1.72-.78-1.83,1.58s-.19,5.17-1.6,4.2c-1.81-8.81-3.12-16.78-4.31-24q-.87-5.43-1.56-10.36c-.12-.83-.23-1.64-.34-2.44s-.26-1.82-.23-1.87c0-.58,0-1.15-.06-1.7-.06-2.26,0-4.54,0-7,0-1.28.07-2.52.1-3.73l.06-2c0-.36,0-.6.05-.86l.07-.81c.38-4.35.68-9.8.66-16.33s-.24-14.17-1-22.29q-.17-1.84-.36-3.81v-.06s0,0,0,0l0,.08-.08.17-.16.34-.32.69-.67,1.49c-.91,2.07-2,4.48-2.93,7.23-.17,1.77-1,5.79-1.86,10s-1.54,8.65-1.86,12-.19,5.65.27,6.78,1.27,1.22,2.2.73q.87-5.58,2.72-13.25l0,.24a1,1,0,0,1,0,.28v.36l0,1.4-.09,2.71q-.14,3.9-.36,7.2c-.08-.53-.17-1.14-.27-1.79l-.09-.64-.05-.31c0-.11,0,0-.06.07l-.07.19c-.19.51-.38,1-.56,1.52a28.83,28.83,0,0,0-1,3.31,19.84,19.84,0,0,0-.52,3.36,22.77,22.77,0,0,0,.06,3.48c-.23-2.34-.63-3.19-1.06-3.07s-.9,1.14-1.23,2.4a20.06,20.06,0,0,0-.65,4c0,.31,0,.6,0,.88v.6l-.07.26-.29,1.18-2.23,9c-2.77,11.56-4.86,20.71-6,23.48s-1.5-.91-.46-14.89l3.9-10.93c1.14-3.22,2.18-6.16,3.14-8.89a16.47,16.47,0,0,0,1.19-3.5,31.13,31.13,0,0,0,.49-4.26c.12-1.83.28-4.15.6-7.58l-3.4,8.89-1.75,4.65-.22.62-.13.35-.26.81-1.06,3.22q-1.07,3.23-2.12,6.43c-5.56,17.1-10.8,33.87-15.87,50.31-10.14,32.87-19.57,64.39-29.15,94.85-.71,6.33-1.57,12.64-2.4,19-1.8.11-5.75,7.4-10.65,18.17-1.26,2.69-2.58,5.59-3.93,8.66l-2.06,4.72-2.2,4.89c-1.45,3.33-3,6.75-4.47,10.23s-3.11,7-4.67,10.46c-1,3.14-2.34,6.43-3.59,9.58s-2.42,6.17-3.4,8.68c-2,5-3.08,8.1-1.45,6.6-.2,1.56,2.88-3.94,6.82-12.46,1-2.13,2.07-4.43,3.2-6.84l3.33-7.58c1.14-2.59,2.3-5.23,3.44-7.85s2.21-5.24,3.27-7.77l5.76-13.5a63.69,63.69,0,0,1,4-8c.9-1.39,1.37-1.3,1.23.84A104,104,0,0,1,118.16,461c-6.53,16.75-13.8,33.57-21.74,49.8A470,470,0,0,1,70.61,557c-2.29,3.6-4.52,7.17-6.93,10.56s-4.68,6.81-7,10.07l-7.17,9.48-1.76,2.3c-.59.76-1.22,1.49-1.82,2.22-1.22,1.47-2.42,2.92-3.62,4.35l-3.54,4.23c-.59.7-1.16,1.4-1.75,2.07l-1.82,2-7,7.6-1.7,1.81c-.58.59-1.17,1.15-1.75,1.72l-3.45,3.34L14.68,625c5.33-6.55,10.49-12.46,15-18.55L33.08,602c.56-.75,1.14-1.47,1.68-2.22l1.59-2.27c2.11-3,4.19-6,6.25-9.06,1.06-1.5,2-3.09,3-4.66s1.92-3.16,2.89-4.76,1.91-3.22,2.87-4.86,1.81-3.36,2.72-5.08c1.78-3.45,3.62-7,5.35-10.71s3.35-7.68,5-11.77A756.08,756.08,0,0,0,100,463.45l2-5.36,1.88-5.4q1.86-5.4,3.74-10.81c2.39-7.25,4.84-14.49,7.1-21.79s4.51-14.6,6.74-21.91,4.33-14.66,6.38-22c8.37-29.36,16-58.76,23.79-87.65L157.39,267c1-3.58,1.94-7.14,2.93-10.7s2-7.18,3-10.76c2.09-7.29,4.17-14.78,6.49-22.38s4.7-15.36,7.2-23.32c.55.09,1.69-1.53,3-3.7s2.69-5,3.93-6.92,2.35-3.43,2.88-3.36.53,1.67-.22,5.44c.94-.93,2.28-3.83,3.94-7.37.82-1.81,1.68-3.73,2.54-5.66l.65-1.45s0-.07,0-.08v.11l0,.23,0,.46.11.91c.13,1.24.27,2.48.4,3.69a129.77,129.77,0,0,1,.84,21.81c.33,1.72.65,3.45,1,5.19s.73,3.68,1.09,5.53c.74,3.79,1.48,7.78,2.24,11.93,1.64,9,3.3,18.18,5,27.39.44,2.49.89,5,1.33,7.47.53,2.9,1.07,5.8,1.6,8.7q1.59,8.72,3.17,17.46c1,5.83,2.16,11.64,3.24,17.45S216,316.65,217,322.45c8.75,46.29,17.93,91.42,26.7,130.52.52-11.58,4.06,0,8.64,17.12s10,39.7,13.83,50.26c1.19,10.52,4.22,24.49,7.78,39s7.66,29.7,11,42.57c1.73,2.58,6.15,18.47,6.82,14.18-5.54-18.89-6-26.15-10.28-45.89,6.32,6.92,10.31,42.06,17.51,71.22l-6.24-14.6c4.68,18.72,8.66,39.1,12.65,59.51l2.23-1c-18.08-27.64-36.24-55.38-54.75-76l19.28,33.34c-8.68-10.93-17.45-22.82-26.16-35s-17.36-24.55-26-36.43S203,548,194.74,537.8a250.06,250.06,0,0,0-24-26.12c11.38,14.65,27,33.82,39,49.81s20.54,28.58,17.86,29.88c-1.85.06-9.22-8.61-17.55-19.38s-17.71-23.55-23.52-31.92a416.43,416.43,0,0,0-39.18-48.81,441.52,441.52,0,0,0-41.94-39.06A270.26,270.26,0,0,0,61.1,422.39C45.71,414.32,29.64,408.31,12,406.63Z"/><path class="cls-1" d="M105.81,463.6c13.06,11.82,21.08,19.52,27.06,24.52a144.25,144.25,0,0,0,13.22,10.21c1.81,1.28,3.62,2.54,5.63,4.15s4.23,3.56,6.95,6.17c5.36,5.27,12.67,13.19,23.37,26.91-3.94-2.43-1.1,3.38,4.4,12.13s13.6,20.56,20.5,29.95c7.49,8.43,15,18.33,22.11,28.1s13.84,19.39,19.78,27.37c7.55,11.29,3.4,12-12.46-9.29A517.7,517.7,0,0,0,207.28,581c-10.7-14.31-22.12-28.56-33.79-42.3s-23.52-27-35-39.57S115.89,474.78,105.81,463.6Z"/><path class="cls-2" d="M66.51,413.72c2,1,3.83,2.08,5.49,3,.83.48,1.62.94,2.36,1.4l2.07,1.39c1.32.89,2.49,1.73,3.55,2.52s2,1.59,2.78,2.31a46.46,46.46,0,0,1,4,3.94c1.07,1.23,2,2.36,2.86,3.47a63.51,63.51,0,0,0,6.6,7.36c1.53,1.49,3.37,3.18,5.74,5.13,1.16,1,2.44,2.09,3.88,3.25s3,2.43,4.72,3.84c-6.84-3.58-10.54-6.63-15.8-11.39l-4.34-3.85c-1.6-1.38-3.42-2.84-5.45-4.49s-4.41-3.3-7.06-5.2c-2.74-1.74-5.73-3.79-9.28-5.68,5.77,2.36,11.39,5.21,17,8.17A199.75,199.75,0,0,0,66.51,413.72Z"/><path class="cls-1" d="M257.74,636.48c10.57,13.76,30.37,42.2,38.61,57.11L319,682.93c-.67-5.65-.72-9.42.18-10.06-.53-3.42,2.93,1.74-1-10.71.91,4.82,2.43,11.83,4.19,19.91l-28.79,13.56C278.91,674.23,258.36,644.29,257.74,636.48Z"/><path class="cls-2" d="M209.39,544.22c8.55,9.91,16.63,20.53,28.6,36.46C229.61,570.67,218.65,559,209.39,544.22Z"/><path class="cls-1" d="M281.91,656.33c-.22-5.46,12.3,15.38,16.25,20.69l6.37,10.6,4.64-2.19-.24-1.52.46,1.47-5,2.37C296.22,677.88,286.67,665.48,281.91,656.33Z"/><path class="cls-1" d="M278.45,527c-6.78-33,12.09,33.11,3.11-5.95l5.9,22.32-2.61,9.38Z"/><path class="cls-1" d="M270.63,476c-3.19-9.09-5.87-18.54-8.64-35.3l3.76,8.69C267.82,455.39,267.58,463.09,270.63,476Z"/><path class="cls-1" d="M270.32,521.31c-4.84-15.55-1.94-13.76-3.39-24.06,1.39,2.82,3.29,12.8,4.32,20.1S272.47,529.24,270.32,521.31Z"/><path class="cls-1" d="M206.57,369.22c3.45,7.07,6.14,18.33,9,31.39s5.79,27.94,9.67,42.27c-3.86-14.33-6.85-24.49-9.8-35.17S209.76,385.78,206.57,369.22Z"/><path class="cls-1" d="M426.69,177.1a61.76,61.76,0,0,0-5.42-17.52A82.24,82.24,0,0,0,413.1,146l.91,3.06.45,1.52.39,1.53,1.79,3c.58,1,1.12,2,1.68,3,1.16,2,2.11,4.1,3.17,6.17A121.18,121.18,0,0,1,426.69,177.1Z"/><path class="cls-1" d="M355.39,324.17c-4.37,5.67-2,4.8,4.4,1s16.39-11.12,26.63-18.79c1.6-1.37,3-2.93,4.52-4.43s3-3,4.34-4.66,2.78-3.22,4.14-4.86,2.56-3.41,3.85-5.11,2.42-3.52,3.62-5.28l1.77-2.67c.6-.88,1.08-1.83,1.63-2.75,1.06-1.85,2.17-3.67,3.18-5.53l2.87-5.68.72-1.41.63-1.45,1.26-2.9,1.28-2.88c.39-1,.73-2,1.11-2.93.7-2,1.52-3.88,2.15-5.86l1.87-5.89a175.56,175.56,0,0,0,5.05-23.56c0-1.61-.11-3.22-.15-4.81l-.09-2.38,0-1.19c0-.39-.09-.79-.13-1.18l-.53-4.69c-.1-.78-.13-1.55-.29-2.32l-.44-2.3a120,120,0,0,1-4.35,31.46c-.31,1.46-.87,2.89-1.31,4.36s-.93,2.93-1.41,4.42-1.13,2.94-1.71,4.43-1.09,3-1.81,4.46l-2,4.47-.5,1.13-.57,1.1L414,257.7c-.78,1.47-1.47,3-2.31,4.44l-2.54,4.39c-.43.73-.82,1.48-1.28,2.2l-1.39,2.14-2.76,4.31-3,4.18-1.48,2.1c-.49.7-1.06,1.35-1.58,2l-3.16,4c-1.05,1.35-2.22,2.6-3.31,3.9l-1.66,1.94c-.54.65-1.1,1.29-1.69,1.89l-3.45,3.68c-1.12,1.25-2.33,2.39-3.52,3.55L377.3,306l-3.68,3.31c-1.22,1.09-2.38,2.22-3.65,3.24-2.5,2.05-4.85,4.19-7.34,6.07L359,321.45C357.82,322.41,356.57,323.26,355.39,324.17Z"/><path class="cls-2" d="M344,357.12c1.56-.71,3.16-1.41,4.74-2.22s3.16-1.65,4.75-2.52l2.4-1.31c.8-.46,1.58-.94,2.37-1.42l4.75-2.94c1.6-1,3.11-2.11,4.67-3.17s3.11-2.13,4.6-3.28l4.45-3.46,2.19-1.73,2.11-1.81,4.15-3.59c1.36-1.19,2.64-2.45,3.92-3.65s2.56-2.39,3.76-3.59l3.47-3.6c2.31-2.3,4.34-4.66,6.29-6.82,1-1.09,1.93-2.1,2.8-3.13l2.51-3c-2.71,3.15-5.8,6.15-8.87,9.29-1.56,1.55-3.24,3-4.86,4.55l-2.48,2.29-2.59,2.19a223.42,223.42,0,0,1-21.63,16.38c-7.35,5-14.81,9.29-21.65,13.07s-13.21,6.79-18.51,9.15c-1.12,1.07,1.48.4,5.12-1,1.82-.7,3.9-1.54,6-2.37S342.39,357.77,344,357.12Z"/><path class="cls-1" d="M157.07,36.52c5.34-.34,11-.42,16.88-.37,2.94.06,5.94.12,9,.29s6.14.28,9.26.55a388.3,388.3,0,0,1,38.58,4.93c13.05,2.31,26.13,5.2,38.8,8.44s25,6.73,36.65,10c-10.15-4.66-15.35-7.14-22.09-10-1.69-.71-3.46-1.47-5.45-2.26L272,45.67c-2.51-.93-5.38-1.78-8.63-2.83-1.63-.54-3.39-1-5.26-1.54s-3.85-1.09-6-1.65c13.53.08,26.75,4.16,39.85,9.85s26.22,13,40.2,20.15c-5.56-3.2-7.88-4.69-7.78-5.13s2.56.22,6.31,1.66,8.82,3.65,14.09,6.25,10.69,5.71,15.34,8.63c4.2,3,8.65,6.36,13.2,10s9.18,7.67,13.79,12A178.58,178.58,0,0,1,413,133.44a141.65,141.65,0,0,1,18.08,37.77,113.66,113.66,0,0,1,4.8,40.43,94.26,94.26,0,0,1-3.44,24.79,146.47,146.47,0,0,1-11.89,30c-9.81,18.63-21,31.54-15,29-1.26,1.75-2.67,3.23-3.93,4.71s-2.45,2.86-3.7,4.08-2.41,2.39-3.55,3.48-2.2,2.12-3.32,3c-2.21,1.81-4.19,3.45-6.16,4.86s-3.89,2.64-5.73,3.83-3.73,2.21-5.58,3.3l-2.81,1.64-3,1.62c-4,2.26-8.47,4.72-14,7.9a154.18,154.18,0,0,1-23.66,15c-4.07,2.16-8.25,4-12.39,5.88s-8.38,3.45-12.65,4.92-8.53,2.85-12.79,4.18-8.6,2.45-13,3.5c-8.66,2.17-17.4,4-26.26,5.64-4.43.79-8.84,1.67-13.3,2.41s-8.94,1.44-13.43,2.21-9,1.33-13.59,2.07c-2.27.39-4.57.69-6.87,1l-6.93,1c-18.56,2.72-37.77,5.57-58.46,9,1.22-.94-.45-1.45-3.87-1.66-1.71-.13-3.86-.1-6.32-.18s-5.21-.07-8.13-.05c-5.84.13-12.32,0-18.35,0-3,0-5.91-.11-8.55-.2l-7-.28c-1.29-.06-2.65-.07-4.06-.17l-4.39-.3-9.64-.63c-3.36-.29-6.85-.67-10.43-1l-5.42-.51L48.83,385c-14.69-1.59-29.47-4.39-40.91-6.19L5.83,421.6c1.59-.22,3.09-.45,4.5-.71l1-.2,1-.09,1.92-.21c1.23-.12,2.33-.37,3.34-.45a24.14,24.14,0,0,0,2.6-.34c2.9-.58,3.53-1.57.46-3.13-1.07-.32-2.21-.62-3.41-.9s-2.46-.3-3.78-.42l-2-.17c-.69,0-1.38,0-2.08,0L5,415.23l1.47-30.14c3.16.71,6.49,1.39,10,2.06l5.3,1,5.5.79c3.72.49,7.52,1.06,11.4,1.51l11.81,1.19,3,.31,3,.23,6,.49,6,.55,5.94.45c4,.3,7.84.75,11.66,1.13s7.57.76,11.21,1.29c4,.6,7.22.87,9.78,1.25s4.44.65,5.72.92c2.57.55,2.71,1,1.06,1.32a78.5,78.5,0,0,1-9.68.79l-3.65.15h-4l-8.93-.05c-3.14,0-6.38-.19-9.69-.31l-10-.44L58,399l-4.67-.3c-1.53-.08-3-.26-4.44-.37-2.87-.25-5.55-.45-8-.6l-6.39-.31c-3.61-.16-5.86,0-6.11.73a26.9,26.9,0,0,1,6.6,1.29c2.18.68,4.54,1.42,7.5,2.29,1.49.43,3.12.87,5,1.31a60.67,60.67,0,0,0,6.24,1.22c2.33.33,4.93.63,7.86.88s6.17.5,9.8.45c-15.4-.6-21.58-.63-22.66,0s2.92,2.06,7.93,3.35c10,2.82,24,5.51,7.81,6.11,17.88,2.3,31,3.32,41.1,3.9l7.05.43c2.18.14,4.21.31,6.1.37,3.79.17,7.07.37,10.07.6l8.44.73c2.7.25,5.36.55,8.24.91l4.52.58,5,.54,12.29,1.28c5.44-.83,10-1.62,13.84-2.36l2.74-.55,2.47-.6c1.57-.4,3-.78,4.24-1.15,5-1.49,7.85-2.76,9.67-3.95,3.61-2.46,3.35-4.41,9.19-6.9,22.33-5.67,42.37-9.77,61.74-14.21,9.67-2.3,19.15-4.7,28.52-7.68a205.77,205.77,0,0,0,27.7-11c-6.11,5.11-5.19,6.39.51,5.11s16.08-5.37,28.24-11.83a237.93,237.93,0,0,0,38.49-25.64c1.59-1.24,3.11-2.58,4.62-3.9l4.49-3.94c1.45-1.38,2.88-2.74,4.29-4.1.71-.67,1.41-1.35,2.1-2s1.38-1.34,2-2c5.29-5.47,10-10.85,13.95-15.78,2.52-3.2,4.86-6,6.67-8.77l2.63-3.85,1.19-1.78c.36-.58.7-1.17,1-1.73,1.32-2.25,2.44-4.24,3.4-6,.5-.89.91-1.74,1.27-2.56s.7-1.58,1-2.3a43.06,43.06,0,0,0,2.4-6.91c.42-1.87.62-3.39.84-4.93s.48-3.07.85-5a64.53,64.53,0,0,1,1.89-7.46c.52-1.55.93-3.38,1.55-5.4.31-1,.63-2.09,1-3.24l.56-1.77c.18-.61.33-1.25.51-1.91.35-1.3.73-2.69,1.12-4.16.21-.74.42-1.49.63-2.27a24.24,24.24,0,0,0,.61-2.41q.57-2.49,1.2-5.28.31-1.38.66-2.85c.19-1,.35-2,.53-3.05,2.39-8.14,3.28-8,3.43-3.74,0,1.07,0,2.41,0,3.94a47.72,47.72,0,0,1-.34,5.07c-.24,1.82-.48,3.76-.74,5.75-.14,1-.24,2-.43,3s-.4,2-.59,3c-.39,2-.78,4-1.15,5.88s-.89,3.65-1.26,5.28-.71,3.12-1,4.38-.49,2.28-.56,3c-.18,1.5.15,1.89,1.22.62s2.78-4.27,5.3-9.61a172.65,172.65,0,0,0,5.67-32.5A123.46,123.46,0,0,0,465.5,207c-.22-1.22-.43-2.43-.65-3.64-.11-.6-.2-1.2-.34-1.8l-.45-1.8c-.59-2.37-1.19-4.74-1.8-7.15a230.3,230.3,0,0,0-10.83-29.85,189.62,189.62,0,0,0-8.29-21.13c-1.48-3.19-2.79-6-3.74-8s-1.39-3.42-1.17-3.7c7.4,11.55,10.06,15.76,10.37,13.07a11.72,11.72,0,0,0-.41-3.2c-.36-1.44-.92-3.26-1.66-5.44s-1.81-4.64-3.07-7.42l-2.13-4.35c-.75-1.53-1.65-3.06-2.56-4.71-.54-.67-1.07-1.32-1.56-1.94l-1.49-1.71c-1-1.09-1.8-2.07-2.59-3-1.6-1.76-3-3.15-4.15-4.37s-2.33-2.2-3.43-3.19-2.22-1.92-3.58-2.91c1,1.53,1.72,3,2.45,4.28s1.34,2.43,1.82,3.48a48.75,48.75,0,0,1,2,4.7c.73,2.15.31,2.38-1,1.13-2.58-2.43-8.66-10.82-17.84-20.37a209.21,209.21,0,0,0-34-28.79c-12.61-8.57-25.46-15-34.65-18.07-12.94-5.43-23.61-9.31-32.47-12.51-4.41-1.66-8.42-3-12-4.33s-6.82-2.44-9.7-3.58c-5.83-2.14-10.37-4.11-14.32-5.85-2-.88-3.76-1.8-5.5-2.63s-3.4-1.66-5.06-2.5a117.13,117.13,0,0,0-25.38-9.88c-3-.78-6.37-1.61-10.15-2.28-1.89-.35-3.89-.71-6-1.06s-4.34-.6-6.69-.89A248.51,248.51,0,0,0,178.69.06c8.55,2.32,8.1,3.69,2.26,4.34s-17.2,1-30.71,2.21c-6.76.62-14.06,1.43-21.45,2.68s-14.87,2.82-22,4.75c-14.25,3.83-26.85,9.31-34.72,14A282.57,282.57,0,0,0,41,45.5c-4,2.6-7.8,5.12-11.62,8-1.89,1.44-3.88,2.85-5.81,4.51l-3,2.52c-1,.87-2,1.83-3.06,2.8A161.35,161.35,0,0,0,6.26,80.83L4.89,83.38c-.43.85-.81,1.71-1.19,2.53-.74,1.66-1.47,3.18-2,4.6a26.35,26.35,0,0,0-1.71,6c4.47-2.92,10.22-8.79,18.29-15.67A179.37,179.37,0,0,1,49.52,59a168.37,168.37,0,0,1,21.15-9.78,172.47,172.47,0,0,1,24.58-7.28c2.16-.53,4.42-.88,6.65-1.33s4.53-.75,6.82-1.13c4.63-.62,9.33-1.21,14.17-1.55s9.76-.58,14.77-.7,10.13,0,15.33.22C155.21,37.06,157.14,36.75,157.07,36.52Z"/></g></g></svg>